# xmcd
#
# Track frame offsets: 
#        150
#        14587
#        31943
#        48890
#        66739
#        78697
#        92895
#        108480
#        121553
#        133205
#        152992
#        174659
#        189696
#        206796
#        226873
#        244901
#        260522
#        278183
#        296316
#        315881
#        326783
#
# Disc length: 4617 seconds
#
# Revision: 0
# Processed by: cddbd v1.5.2PL0 Copyright (c) Steve Scherf et al.
# Submitted via: ExactAudioCopyFreeDBPlugin 1.0
#
DISCID=37120715
DTITLE=Henry Townsend - Mule
DYEAR=2018
DGENRE=Blues
TTITLE0=Bad Luck Dice
TTITLE1=Nothing but Trouble
TTITLE2=Things have Changed
TTITLE3=The Old Man's Soul
TTITLE4=Tears Come Rollin' Down
TTITLE5=It's a Hard Road to Travel
TTITLE6=Talkin' Guitar Blues
TTITLE7=I'm Just an Ordinary Man
TTITLE8=Alley Strut
TTITLE9=Can't You See
TTITLE10=Dark Clouds Rising
TTITLE11=The Train is at the Station
TTITLE12=Overstayed my Time
TTITLE13=The Other Night (Bonus)
TTITLE14=Broken Home Blues (Bonus)
TTITLE15=Going Back to my Baby (Bonus)
TTITLE16=Nice and Kind (Bonus)
TTITLE17=Goin' Back Down South (Bonus)
TTITLE18=Turned On and Off (Bonus)
TTITLE19=Look Over Yonder (Bonus)
TTITLE20=Since You've Come Back Home (Bonus)
EXTD=
EXTT0=
EXTT1=
EXTT2=
EXTT3=
EXTT4=
EXTT5=
EXTT6=
EXTT7=
EXTT8=
EXTT9=
EXTT10=
EXTT11=
EXTT12=
EXTT13=
EXTT14=
EXTT15=
EXTT16=
EXTT17=
EXTT18=
EXTT19=
EXTT20=
PLAYORDER=
